<mxfile host="app.diagrams.net" modified="2021-04-07T10:59:54.270Z" agent="5.0 (Macintosh; Intel Mac OS X 11_2_3) AppleWebKit/537.36 (KHTML, like Gecko) Chrome/89.0.4389.114 Safari/537.36" etag="0_sXnjVKzXBC75F1w747" version="14.5.8" type="github">
  <diagram id="fEEfaum9PXZNRL0o0fKY" name="Page-1">
    <mxGraphModel dx="946" dy="646" grid="1" gridSize="10" guides="1" tooltips="1" connect="1" arrows="1" fold="1" page="1" pageScale="1" pageWidth="827" pageHeight="1169" math="0" shadow="0">
      <root>
        <mxCell id="0" />
        <mxCell id="1" parent="0" />
        <mxCell id="ky9Ek_mbaUJdLb6QoavA-50" value="" style="rounded=0;whiteSpace=wrap;html=1;fontSize=16;fillColor=#4A690C;strokeColor=none;" parent="1" vertex="1">
          <mxGeometry x="29" y="620" width="770" height="390" as="geometry" />
        </mxCell>
        <mxCell id="ky9Ek_mbaUJdLb6QoavA-1" value="LMAS WORKFLOW" style="text;html=1;strokeColor=none;fillColor=none;align=center;verticalAlign=middle;whiteSpace=wrap;rounded=0;fontSize=26;fontStyle=1" parent="1" vertex="1">
          <mxGeometry x="274" y="20" width="280" height="20" as="geometry" />
        </mxCell>
        <mxCell id="ky9Ek_mbaUJdLb6QoavA-2" value="" style="rounded=0;whiteSpace=wrap;html=1;fillColor=#999999;strokeColor=none;" parent="1" vertex="1">
          <mxGeometry x="29" y="60" width="150" height="450" as="geometry" />
        </mxCell>
        <mxCell id="ky9Ek_mbaUJdLb6QoavA-4" value="&lt;b&gt;&lt;font style=&quot;font-size: 26px&quot;&gt;Input&lt;/font&gt;&lt;/b&gt;" style="text;html=1;strokeColor=none;fillColor=none;align=center;verticalAlign=middle;whiteSpace=wrap;rounded=0;" parent="1" vertex="1">
          <mxGeometry x="79" y="80" width="40" height="20" as="geometry" />
        </mxCell>
        <mxCell id="ky9Ek_mbaUJdLb6QoavA-5" value="&lt;b style=&quot;font-size: 16px&quot;&gt;--fastq&lt;br&gt;&lt;/b&gt;&lt;br&gt;&lt;b&gt;default path: &lt;/b&gt;&lt;i&gt;&quot;data/fastq/*_{1,2}*&quot;&lt;/i&gt;" style="rounded=1;whiteSpace=wrap;html=1;verticalAlign=middle;" parent="1" vertex="1">
          <mxGeometry x="39" y="140" width="130" height="70" as="geometry" />
        </mxCell>
        <mxCell id="ky9Ek_mbaUJdLb6QoavA-6" value="&lt;b style=&quot;font-size: 15px&quot;&gt;--reference&lt;br&gt;&lt;br&gt;&lt;/b&gt;&lt;b&gt;default path:&lt;/b&gt;&lt;br&gt;&lt;b&gt;&amp;nbsp;&lt;/b&gt;&lt;i&gt;&quot;data/reference/*.fasta&quot;&lt;/i&gt;&lt;b&gt;&lt;br&gt;&lt;/b&gt;" style="rounded=1;whiteSpace=wrap;html=1;" parent="1" vertex="1">
          <mxGeometry x="39" y="270" width="130" height="70" as="geometry" />
        </mxCell>
        <mxCell id="ky9Ek_mbaUJdLb6QoavA-7" value="&lt;b style=&quot;font-size: 16px&quot;&gt;--md&lt;br&gt;&lt;/b&gt;&lt;b&gt;default path:&amp;nbsp;&lt;br&gt;&lt;/b&gt;&lt;i&gt;&quot;data/*.md&quot;&lt;br&gt;&lt;/i&gt;&lt;b&gt;Optional&lt;br&gt;&lt;/b&gt;" style="rounded=1;whiteSpace=wrap;html=1;" parent="1" vertex="1">
          <mxGeometry x="39" y="410" width="130" height="70" as="geometry" />
        </mxCell>
        <mxCell id="ky9Ek_mbaUJdLb6QoavA-8" value="" style="rounded=0;whiteSpace=wrap;html=1;fillColor=#689411;strokeColor=none;" parent="1" vertex="1">
          <mxGeometry x="209" y="60" width="190" height="450" as="geometry" />
        </mxCell>
        <mxCell id="ky9Ek_mbaUJdLb6QoavA-9" value="&lt;b&gt;&lt;font style=&quot;font-size: 26px&quot;&gt;Assembly&lt;/font&gt;&lt;/b&gt;" style="text;html=1;strokeColor=none;fillColor=none;align=center;verticalAlign=middle;whiteSpace=wrap;rounded=0;" parent="1" vertex="1">
          <mxGeometry x="231" y="80" width="150" height="20" as="geometry" />
        </mxCell>
        <mxCell id="ky9Ek_mbaUJdLb6QoavA-10" value="&lt;font style=&quot;font-size: 16px&quot;&gt;&lt;b&gt;Assembler 1&lt;/b&gt;&lt;/font&gt;" style="rounded=1;whiteSpace=wrap;html=1;" parent="1" vertex="1">
          <mxGeometry x="229" y="140" width="150" height="40" as="geometry" />
        </mxCell>
        <mxCell id="ky9Ek_mbaUJdLb6QoavA-12" value="&lt;font style=&quot;font-size: 16px&quot;&gt;&lt;b&gt;Assembler 2&lt;/b&gt;&lt;/font&gt;" style="rounded=1;whiteSpace=wrap;html=1;" parent="1" vertex="1">
          <mxGeometry x="229" y="200" width="150" height="40" as="geometry" />
        </mxCell>
        <mxCell id="ky9Ek_mbaUJdLb6QoavA-13" value="&lt;font style=&quot;font-size: 16px&quot;&gt;&lt;b&gt;Assembler 3&lt;/b&gt;&lt;/font&gt;" style="rounded=1;whiteSpace=wrap;html=1;" parent="1" vertex="1">
          <mxGeometry x="229" y="255" width="150" height="40" as="geometry" />
        </mxCell>
        <mxCell id="ky9Ek_mbaUJdLb6QoavA-15" value="&lt;font style=&quot;font-size: 16px&quot;&gt;&lt;b&gt;Assembler &lt;i&gt;n&lt;/i&gt;&lt;/b&gt;&lt;/font&gt;" style="rounded=1;whiteSpace=wrap;html=1;" parent="1" vertex="1">
          <mxGeometry x="229" y="440" width="150" height="40" as="geometry" />
        </mxCell>
        <mxCell id="ky9Ek_mbaUJdLb6QoavA-17" value="..." style="text;html=1;strokeColor=none;fillColor=none;align=center;verticalAlign=middle;whiteSpace=wrap;rounded=0;fontSize=16;fontStyle=1" parent="1" vertex="1">
          <mxGeometry x="284" y="410" width="40" height="20" as="geometry" />
        </mxCell>
        <mxCell id="ky9Ek_mbaUJdLb6QoavA-20" value="" style="rounded=0;whiteSpace=wrap;html=1;fontSize=16;fillColor=#4A690C;" parent="1" vertex="1">
          <mxGeometry x="429" y="60" width="370" height="450" as="geometry" />
        </mxCell>
        <mxCell id="ky9Ek_mbaUJdLb6QoavA-21" value="&lt;b&gt;&lt;font style=&quot;font-size: 26px&quot;&gt;Global Assessment&lt;/font&gt;&lt;/b&gt;" style="text;html=1;strokeColor=none;fillColor=none;align=center;verticalAlign=middle;whiteSpace=wrap;rounded=0;fontColor=#FFFFFF;" parent="1" vertex="1">
          <mxGeometry x="469" y="80" width="280" height="20" as="geometry" />
        </mxCell>
        <mxCell id="ky9Ek_mbaUJdLb6QoavA-36" style="edgeStyle=orthogonalEdgeStyle;rounded=0;orthogonalLoop=1;jettySize=auto;html=1;exitX=0.5;exitY=1;exitDx=0;exitDy=0;entryX=0.5;entryY=0;entryDx=0;entryDy=0;fontSize=16;strokeWidth=3;" parent="1" source="ky9Ek_mbaUJdLb6QoavA-22" target="ky9Ek_mbaUJdLb6QoavA-35" edge="1">
          <mxGeometry relative="1" as="geometry" />
        </mxCell>
        <mxCell id="ky9Ek_mbaUJdLb6QoavA-22" value="&lt;font style=&quot;font-size: 16px&quot;&gt;&lt;b&gt;Read Mapping&lt;br&gt;&lt;/b&gt;&lt;/font&gt;&lt;font style=&quot;font-size: 12px&quot;&gt;minimap2&lt;br&gt;&lt;/font&gt;" style="rounded=1;whiteSpace=wrap;html=1;" parent="1" vertex="1">
          <mxGeometry x="459" y="140" width="300" height="40" as="geometry" />
        </mxCell>
        <mxCell id="ky9Ek_mbaUJdLb6QoavA-23" style="edgeStyle=orthogonalEdgeStyle;rounded=0;orthogonalLoop=1;jettySize=auto;html=1;exitX=1;exitY=0.5;exitDx=0;exitDy=0;entryX=0;entryY=0.5;entryDx=0;entryDy=0;fontSize=16;strokeWidth=3;" parent="1" source="ky9Ek_mbaUJdLb6QoavA-5" target="ky9Ek_mbaUJdLb6QoavA-10" edge="1">
          <mxGeometry relative="1" as="geometry">
            <Array as="points">
              <mxPoint x="199" y="175" />
              <mxPoint x="199" y="160" />
            </Array>
          </mxGeometry>
        </mxCell>
        <mxCell id="ky9Ek_mbaUJdLb6QoavA-25" style="edgeStyle=orthogonalEdgeStyle;rounded=0;orthogonalLoop=1;jettySize=auto;html=1;exitX=1;exitY=0.5;exitDx=0;exitDy=0;fontSize=16;strokeWidth=3;" parent="1" source="ky9Ek_mbaUJdLb6QoavA-5" target="ky9Ek_mbaUJdLb6QoavA-12" edge="1">
          <mxGeometry relative="1" as="geometry">
            <Array as="points">
              <mxPoint x="199" y="175" />
              <mxPoint x="199" y="220" />
            </Array>
          </mxGeometry>
        </mxCell>
        <mxCell id="ky9Ek_mbaUJdLb6QoavA-26" style="edgeStyle=orthogonalEdgeStyle;rounded=0;orthogonalLoop=1;jettySize=auto;html=1;exitX=1;exitY=0.5;exitDx=0;exitDy=0;entryX=0;entryY=0.5;entryDx=0;entryDy=0;fontSize=16;strokeWidth=3;" parent="1" source="ky9Ek_mbaUJdLb6QoavA-5" target="ky9Ek_mbaUJdLb6QoavA-13" edge="1">
          <mxGeometry relative="1" as="geometry">
            <Array as="points">
              <mxPoint x="199" y="175" />
              <mxPoint x="199" y="275" />
            </Array>
          </mxGeometry>
        </mxCell>
        <mxCell id="ky9Ek_mbaUJdLb6QoavA-35" value="&lt;span style=&quot;font-weight: bold ; font-size: 16px&quot;&gt;Global Metrics&lt;br&gt;&lt;/span&gt;&lt;br&gt;&lt;b&gt;Table Metrics&lt;br&gt;&lt;/b&gt;&lt;font style=&quot;font-size: 12px&quot;&gt;&lt;b&gt;Original assembly:&lt;/b&gt; Number of contigs, Number of basepairs, Maximum contig size, N&lt;i&gt;x&lt;/i&gt;, Percentage of mapped reads, Number of &quot;N&quot; basepairs&lt;/font&gt;&lt;br&gt;&lt;font style=&quot;font-size: 12px&quot;&gt;&lt;span style=&quot;font-weight: bold&quot;&gt;Contigs over minimum lenght:&amp;nbsp;&lt;/span&gt;Number of contigs, Number of basepairs, N&lt;i&gt;x&lt;/i&gt;, Misassembled contigs, Number of &quot;N&quot; basepairs&lt;br&gt;&lt;br&gt;&lt;b&gt;Plot Metrics&lt;br&gt;&lt;/b&gt;Contig size distribution, Gap size distribution, Misassembled contigs&lt;br&gt;&lt;/font&gt;&lt;br&gt;&lt;b&gt;Parameters:&lt;br&gt;&lt;/b&gt;&lt;font style=&quot;font-size: 12px&quot;&gt;&amp;nbsp;--minLength (default: 1000 bp)&lt;br&gt;--mapped_reads_threshold (default: 75%)&lt;br&gt;--n_target (default: 50%)&lt;br&gt;&lt;/font&gt;" style="rounded=1;whiteSpace=wrap;html=1;" parent="1" vertex="1">
          <mxGeometry x="459" y="200" width="300" height="280" as="geometry" />
        </mxCell>
        <mxCell id="ky9Ek_mbaUJdLb6QoavA-51" style="edgeStyle=orthogonalEdgeStyle;rounded=0;orthogonalLoop=1;jettySize=auto;html=1;exitX=0.75;exitY=1;exitDx=0;exitDy=0;entryX=0.772;entryY=0.02;entryDx=0;entryDy=0;entryPerimeter=0;fontSize=16;strokeWidth=3;" parent="1" source="ky9Ek_mbaUJdLb6QoavA-37" target="ky9Ek_mbaUJdLb6QoavA-42" edge="1">
          <mxGeometry relative="1" as="geometry" />
        </mxCell>
        <mxCell id="ky9Ek_mbaUJdLb6QoavA-37" value="&lt;b&gt;Filter Assembly&lt;/b&gt;&lt;br&gt;&lt;font style=&quot;font-size: 12px&quot;&gt;bbTools&lt;br&gt;&lt;/font&gt;&lt;b style=&quot;font-size: 12px&quot;&gt;parameters:&amp;nbsp;&lt;/b&gt;&lt;font style=&quot;font-size: 12px&quot;&gt;--minLength (default: 1000 bp)&lt;/font&gt;&lt;b&gt;&lt;br&gt;&lt;/b&gt;" style="rounded=1;whiteSpace=wrap;html=1;fontSize=16;" parent="1" vertex="1">
          <mxGeometry x="29" y="535" width="770" height="60" as="geometry" />
        </mxCell>
        <mxCell id="ky9Ek_mbaUJdLb6QoavA-69" style="edgeStyle=orthogonalEdgeStyle;rounded=0;orthogonalLoop=1;jettySize=auto;html=1;exitX=0.5;exitY=1;exitDx=0;exitDy=0;strokeWidth=3;fontSize=16;" parent="1" source="ky9Ek_mbaUJdLb6QoavA-39" target="ky9Ek_mbaUJdLb6QoavA-68" edge="1">
          <mxGeometry relative="1" as="geometry" />
        </mxCell>
        <mxCell id="ky9Ek_mbaUJdLb6QoavA-39" value="&lt;span style=&quot;font-weight: bold&quot;&gt;Reference Metrics&lt;br&gt;&lt;/span&gt;&lt;br&gt;&lt;font style=&quot;font-size: 12px&quot;&gt;&lt;b&gt;Table Metrics&lt;br&gt;&lt;/b&gt;&lt;/font&gt;&lt;span style=&quot;font-size: 12px&quot;&gt;Contiguity, Multiplicity, Validity, Parsimony, Identity, Lowest Identity, Breadth of Coverage, &lt;br&gt;Aligned Contigs, Misassembled Contigs, Lx, NAx, NGx, Aligned Basepairs, Number of &quot;N&quot; Basepairs&lt;br&gt;&lt;/span&gt;&lt;br&gt;&lt;span style=&quot;font-size: 12px&quot;&gt;&lt;b&gt;Plot Metrics&lt;/b&gt;&lt;br&gt;Genome framentation, Lx metric, NAx metric, NGx metric, PLS metric, Gaps, SNPs&lt;br&gt;&lt;br&gt;&lt;/span&gt;&lt;b style=&quot;font-size: 12px&quot;&gt;Parameters:&lt;br&gt;&lt;/b&gt;&lt;span style=&quot;font-size: 12px&quot;&gt;--l_target (default: 90%)&lt;/span&gt;&lt;b style=&quot;font-size: 12px&quot;&gt;&lt;br&gt;&lt;/b&gt;&lt;font style=&quot;font-size: 12px&quot;&gt;--n_target (default: 50%)&lt;br&gt;&lt;/font&gt;" style="rounded=1;whiteSpace=wrap;html=1;fontSize=16;" parent="1" vertex="1">
          <mxGeometry x="59" y="740" width="710" height="240" as="geometry" />
        </mxCell>
        <mxCell id="ky9Ek_mbaUJdLb6QoavA-46" style="edgeStyle=orthogonalEdgeStyle;rounded=0;orthogonalLoop=1;jettySize=auto;html=1;exitX=0.5;exitY=1;exitDx=0;exitDy=0;entryX=0.5;entryY=0;entryDx=0;entryDy=0;fontSize=16;strokeWidth=3;" parent="1" source="ky9Ek_mbaUJdLb6QoavA-42" target="ky9Ek_mbaUJdLb6QoavA-39" edge="1">
          <mxGeometry relative="1" as="geometry" />
        </mxCell>
        <mxCell id="ky9Ek_mbaUJdLb6QoavA-42" value="&lt;font&gt;&lt;b&gt;Assembly Mapping&lt;br&gt;&lt;/b&gt;&lt;/font&gt;&lt;font style=&quot;font-size: 12px&quot;&gt;minimap2&lt;/font&gt;&lt;b&gt;&lt;br&gt;&lt;/b&gt;" style="rounded=1;whiteSpace=wrap;html=1;fontSize=16;" parent="1" vertex="1">
          <mxGeometry x="59" y="680" width="710" height="40" as="geometry" />
        </mxCell>
        <mxCell id="ky9Ek_mbaUJdLb6QoavA-61" style="edgeStyle=orthogonalEdgeStyle;rounded=0;orthogonalLoop=1;jettySize=auto;html=1;exitX=1;exitY=0.5;exitDx=0;exitDy=0;entryX=0;entryY=0.5;entryDx=0;entryDy=0;strokeWidth=3;fontSize=16;" parent="1" source="ky9Ek_mbaUJdLb6QoavA-47" target="ky9Ek_mbaUJdLb6QoavA-22" edge="1">
          <mxGeometry relative="1" as="geometry">
            <Array as="points">
              <mxPoint x="409" y="330" />
              <mxPoint x="409" y="340" />
              <mxPoint x="420" y="340" />
              <mxPoint x="420" y="160" />
            </Array>
          </mxGeometry>
        </mxCell>
        <mxCell id="ky9Ek_mbaUJdLb6QoavA-47" value="&lt;font style=&quot;font-size: 16px&quot;&gt;&lt;b&gt;Assembler 4&lt;/b&gt;&lt;/font&gt;" style="rounded=1;whiteSpace=wrap;html=1;" parent="1" vertex="1">
          <mxGeometry x="229" y="310" width="150" height="40" as="geometry" />
        </mxCell>
        <mxCell id="ky9Ek_mbaUJdLb6QoavA-63" style="edgeStyle=orthogonalEdgeStyle;rounded=0;orthogonalLoop=1;jettySize=auto;html=1;exitX=1;exitY=0.5;exitDx=0;exitDy=0;entryX=0;entryY=0.5;entryDx=0;entryDy=0;strokeWidth=3;fontSize=16;" parent="1" source="ky9Ek_mbaUJdLb6QoavA-48" target="ky9Ek_mbaUJdLb6QoavA-22" edge="1">
          <mxGeometry relative="1" as="geometry">
            <Array as="points">
              <mxPoint x="409" y="390" />
              <mxPoint x="409" y="340" />
              <mxPoint x="420" y="340" />
              <mxPoint x="420" y="160" />
            </Array>
          </mxGeometry>
        </mxCell>
        <mxCell id="ky9Ek_mbaUJdLb6QoavA-48" value="&lt;font style=&quot;font-size: 16px&quot;&gt;&lt;b&gt;Assembler 5&lt;/b&gt;&lt;/font&gt;" style="rounded=1;whiteSpace=wrap;html=1;" parent="1" vertex="1">
          <mxGeometry x="229" y="370" width="150" height="40" as="geometry" />
        </mxCell>
        <mxCell id="ky9Ek_mbaUJdLb6QoavA-52" value="&lt;b&gt;&lt;font style=&quot;font-size: 26px&quot;&gt;Per Reference Assessment&lt;/font&gt;&lt;/b&gt;" style="text;html=1;strokeColor=none;fillColor=none;align=center;verticalAlign=middle;whiteSpace=wrap;rounded=0;fontColor=#FFFFFF;" parent="1" vertex="1">
          <mxGeometry x="229" y="640" width="343" height="20" as="geometry" />
        </mxCell>
        <mxCell id="ky9Ek_mbaUJdLb6QoavA-53" style="edgeStyle=orthogonalEdgeStyle;rounded=0;orthogonalLoop=1;jettySize=auto;html=1;exitX=1;exitY=0.5;exitDx=0;exitDy=0;fontSize=16;strokeWidth=3;" parent="1" source="ky9Ek_mbaUJdLb6QoavA-6" edge="1">
          <mxGeometry relative="1" as="geometry">
            <mxPoint x="189" y="680" as="targetPoint" />
          </mxGeometry>
        </mxCell>
        <mxCell id="ky9Ek_mbaUJdLb6QoavA-54" style="edgeStyle=orthogonalEdgeStyle;rounded=0;orthogonalLoop=1;jettySize=auto;html=1;exitX=1;exitY=0.5;exitDx=0;exitDy=0;entryX=0;entryY=0.5;entryDx=0;entryDy=0;strokeWidth=3;fontSize=16;" parent="1" source="ky9Ek_mbaUJdLb6QoavA-5" target="ky9Ek_mbaUJdLb6QoavA-15" edge="1">
          <mxGeometry relative="1" as="geometry" />
        </mxCell>
        <mxCell id="ky9Ek_mbaUJdLb6QoavA-55" style="edgeStyle=orthogonalEdgeStyle;rounded=0;orthogonalLoop=1;jettySize=auto;html=1;exitX=1;exitY=0.5;exitDx=0;exitDy=0;entryX=0;entryY=0.5;entryDx=0;entryDy=0;strokeWidth=3;fontSize=16;" parent="1" source="ky9Ek_mbaUJdLb6QoavA-5" target="ky9Ek_mbaUJdLb6QoavA-47" edge="1">
          <mxGeometry relative="1" as="geometry" />
        </mxCell>
        <mxCell id="ky9Ek_mbaUJdLb6QoavA-57" style="edgeStyle=orthogonalEdgeStyle;rounded=0;orthogonalLoop=1;jettySize=auto;html=1;exitX=1;exitY=0.5;exitDx=0;exitDy=0;entryX=0;entryY=0.5;entryDx=0;entryDy=0;strokeWidth=3;fontSize=16;" parent="1" source="ky9Ek_mbaUJdLb6QoavA-10" target="ky9Ek_mbaUJdLb6QoavA-22" edge="1">
          <mxGeometry relative="1" as="geometry">
            <Array as="points">
              <mxPoint x="410" y="160" />
              <mxPoint x="410" y="340" />
              <mxPoint x="420" y="340" />
              <mxPoint x="420" y="160" />
            </Array>
          </mxGeometry>
        </mxCell>
        <mxCell id="ky9Ek_mbaUJdLb6QoavA-58" style="edgeStyle=orthogonalEdgeStyle;rounded=0;orthogonalLoop=1;jettySize=auto;html=1;exitX=1;exitY=0.5;exitDx=0;exitDy=0;entryX=0;entryY=0.5;entryDx=0;entryDy=0;strokeWidth=3;fontSize=16;" parent="1" source="ky9Ek_mbaUJdLb6QoavA-12" target="ky9Ek_mbaUJdLb6QoavA-22" edge="1">
          <mxGeometry relative="1" as="geometry">
            <Array as="points">
              <mxPoint x="409" y="220" />
              <mxPoint x="409" y="340" />
              <mxPoint x="420" y="340" />
              <mxPoint x="420" y="160" />
            </Array>
          </mxGeometry>
        </mxCell>
        <mxCell id="ky9Ek_mbaUJdLb6QoavA-68" value="&lt;b&gt;&lt;span style=&quot;font-size: 26px&quot;&gt;Interactive Report&lt;/span&gt;&lt;br&gt;&lt;/b&gt;" style="rounded=0;whiteSpace=wrap;html=1;fontSize=16;fillColor=#999999;strokeColor=none;" parent="1" vertex="1">
          <mxGeometry x="29" y="1030" width="770" height="50" as="geometry" />
        </mxCell>
        <mxCell id="ky9Ek_mbaUJdLb6QoavA-70" value="" style="endArrow=classic;html=1;strokeWidth=3;fontSize=16;exitX=0.893;exitY=1.004;exitDx=0;exitDy=0;exitPerimeter=0;" parent="1" edge="1">
          <mxGeometry width="50" height="50" relative="1" as="geometry">
            <mxPoint x="719.9000000000001" y="481.1199999999999" as="sourcePoint" />
            <mxPoint x="717" y="1030" as="targetPoint" />
          </mxGeometry>
        </mxCell>
        <mxCell id="ky9Ek_mbaUJdLb6QoavA-71" value="" style="endArrow=classic;html=1;strokeWidth=3;fontSize=16;exitX=0.893;exitY=1.004;exitDx=0;exitDy=0;exitPerimeter=0;" parent="1" edge="1">
          <mxGeometry width="50" height="50" relative="1" as="geometry">
            <mxPoint x="105.29000000000015" y="481.1199999999999" as="sourcePoint" />
            <mxPoint x="103" y="1030" as="targetPoint" />
          </mxGeometry>
        </mxCell>
        <mxCell id="ky9Ek_mbaUJdLb6QoavA-72" style="edgeStyle=orthogonalEdgeStyle;rounded=0;orthogonalLoop=1;jettySize=auto;html=1;exitX=1;exitY=0.5;exitDx=0;exitDy=0;entryX=0;entryY=0.5;entryDx=0;entryDy=0;strokeWidth=3;fontSize=16;" parent="1" source="ky9Ek_mbaUJdLb6QoavA-15" target="ky9Ek_mbaUJdLb6QoavA-22" edge="1">
          <mxGeometry relative="1" as="geometry">
            <Array as="points">
              <mxPoint x="410" y="460" />
              <mxPoint x="410" y="340" />
              <mxPoint x="420" y="340" />
              <mxPoint x="420" y="160" />
            </Array>
          </mxGeometry>
        </mxCell>
        <mxCell id="ky9Ek_mbaUJdLb6QoavA-74" value="" style="endArrow=classic;html=1;strokeWidth=3;fontSize=16;entryX=0.508;entryY=-0.038;entryDx=0;entryDy=0;entryPerimeter=0;" parent="1" target="ky9Ek_mbaUJdLb6QoavA-37" edge="1">
          <mxGeometry width="50" height="50" relative="1" as="geometry">
            <mxPoint x="420" y="340" as="sourcePoint" />
            <mxPoint x="330" y="320" as="targetPoint" />
          </mxGeometry>
        </mxCell>
        <mxCell id="ky9Ek_mbaUJdLb6QoavA-76" style="edgeStyle=orthogonalEdgeStyle;rounded=0;orthogonalLoop=1;jettySize=auto;html=1;exitX=1;exitY=0.5;exitDx=0;exitDy=0;strokeWidth=3;fontSize=16;" parent="1" source="ky9Ek_mbaUJdLb6QoavA-13" target="ky9Ek_mbaUJdLb6QoavA-35" edge="1">
          <mxGeometry relative="1" as="geometry">
            <Array as="points">
              <mxPoint x="410" y="275" />
              <mxPoint x="410" y="340" />
            </Array>
          </mxGeometry>
        </mxCell>
        <mxCell id="ky9Ek_mbaUJdLb6QoavA-56" style="edgeStyle=orthogonalEdgeStyle;rounded=0;orthogonalLoop=1;jettySize=auto;html=1;exitX=1;exitY=0.5;exitDx=0;exitDy=0;entryX=0;entryY=0.5;entryDx=0;entryDy=0;strokeWidth=3;fontSize=16;" parent="1" source="ky9Ek_mbaUJdLb6QoavA-5" target="ky9Ek_mbaUJdLb6QoavA-48" edge="1">
          <mxGeometry relative="1" as="geometry" />
        </mxCell>
        <mxCell id="ky9Ek_mbaUJdLb6QoavA-77" style="edgeStyle=orthogonalEdgeStyle;rounded=0;orthogonalLoop=1;jettySize=auto;html=1;exitX=0.5;exitY=0;exitDx=0;exitDy=0;entryX=0.5;entryY=0;entryDx=0;entryDy=0;strokeWidth=3;fontSize=16;" parent="1" source="ky9Ek_mbaUJdLb6QoavA-5" target="ky9Ek_mbaUJdLb6QoavA-22" edge="1">
          <mxGeometry relative="1" as="geometry">
            <Array as="points">
              <mxPoint x="104" y="120" />
              <mxPoint x="609" y="120" />
            </Array>
          </mxGeometry>
        </mxCell>
      </root>
    </mxGraphModel>
  </diagram>
</mxfile>
